if (_typeface_js && _typeface_js.loadFace) _typeface_js.loadFace({"glyphs":{"S":{"x_min":0,"x_max":750.0625,"ha":813,"o":"m 0 125 l 750 125 l 750 187 l 0 187 l 0 125 m 0 750 l 750 750 l 750 812 l 0 812 l 0 750 m 125 375 l 750 375 l 750 437 l 125 437 l 125 375 m 125 875 l 750 875 l 750 937 l 125 937 l 125 875 m 0 500 l 625 500 l 625 562 l 0 562 l 0 500 m 0 0 l 625 0 l 625 62 l 0 62 l 0 0 m 0 625 l 250 625 l 250 687 l 0 687 l 0 625 m 500 250 l 750 250 l 750 312 l 500 312 l 500 250 "},"/":{"x_min":0,"x_max":1000.078125,"ha":1063,"o":"m 0 125 l 375 125 l 375 187 l 0 187 l 0 125 m 250 375 l 625 375 l 625 437 l 250 437 l 250 375 m 500 625 l 875 625 l 875 687 l 500 687 l 500 625 m 125 250 l 500 250 l 500 312 l 125 312 l 125 250 m 375 500 l 750 500 l 750 562 l 375 562 l 375 500 m 625 750 l 1000 750 l 1000 812 l 625 812 l 625 750 m 750 875 l 1000 875 l 1000 937 l 750 937 l 750 875 m 0 0 l 250 0 l 250 62 l 0 62 l 0 0 "},"K":{"x_min":0,"x_max":750.0625,"ha":813,"o":"m 0 250 l 625 250 l 625 312 l 0 312 l 0 250 m 0 625 l 625 625 l 625 687 l 0 687 l 0 625 m 0 500 l 500 500 l 500 562 l 0 562 l 0 500 m 0 375 l 500 375 l 500 437 l 0 437 l 0 375 m 375 125 l 750 125 l 750 187 l 375 187 l 375 125 m 375 750 l 750 750 l 750 812 l 375 812 l 375 750 m 0 875 l 250 875 l 250 937 l 0 937 l 0 875 m 500 875 l 750 875 l 750 937 l 500 937 l 500 875 m 0 0 l 250 0 l 250 62 l 0 62 l 0 0 m 500 0 l 750 0 l 750 62 l 500 62 l 500 0 m 0 125 l 250 125 l 250 187 l 0 187 l 0 125 m 0 750 l 250 750 l 250 812 l 0 812 l 0 750 "},"7":{"x_min":0,"x_max":750.0625,"ha":813,"o":"m 0 750 l 750 750 l 750 812 l 0 812 l 0 750 m 0 875 l 625 875 l 625 937 l 0 937 l 0 875 m 500 0 l 750 0 l 750 62 l 500 62 l 500 0 m 500 125 l 750 125 l 750 187 l 500 187 l 500 125 m 500 500 l 750 500 l 750 562 l 500 562 l 500 500 m 500 625 l 750 625 l 750 687 l 500 687 l 500 625 m 500 250 l 750 250 l 750 312 l 500 312 l 500 250 m 500 375 l 750 375 l 750 437 l 500 437 l 500 375 "},"d":{"x_min":0,"x_max":750.0625,"ha":813,"o":"m 0 125 l 750 125 l 750 187 l 0 187 l 0 125 m 0 750 l 750 750 l 750 812 l 0 812 l 0 750 m 0 875 l 625 875 l 625 937 l 0 937 l 0 875 m 0 0 l 625 0 l 625 62 l 0 62 l 0 0 m 500 375 l 750 375 l 750 437 l 500 437 l 500 375 m 0 250 l 250 250 l 250 312 l 0 312 l 0 250 m 0 500 l 250 500 l 250 562 l 0 562 l 0 500 m 500 500 l 750 500 l 750 562 l 500 562 l 500 500 m 0 625 l 250 625 l 250 687 l 0 687 l 0 625 m 0 375 l 250 375 l 250 437 l 0 437 l 0 375 m 500 250 l 750 250 l 750 312 l 500 312 l 500 250 m 500 625 l 750 625 l 750 687 l 500 687 l 500 625 "},",":{"x_min":0,"x_max":250.015625,"ha":313,"o":"m 0 0 l 250 0 l 250 62 l 0 62 l 0 0 m 0 125 l 250 125 l 250 187 l 0 187 l 0 125 m 0 -125 l 250 -125 l 250 -62 l 0 -62 l 0 -125 "},"Y":{"x_min":0,"x_max":750.0625,"ha":813,"o":"m 0 500 l 750 500 l 750 562 l 0 562 l 0 500 m 125 375 l 625 375 l 625 437 l 125 437 l 125 375 m 250 250 l 500 250 l 500 312 l 250 312 l 250 250 m 250 125 l 500 125 l 500 187 l 250 187 l 250 125 m 250 0 l 500 0 l 500 62 l 250 62 l 250 0 m 0 625 l 250 625 l 250 687 l 0 687 l 0 625 m 500 625 l 750 625 l 750 687 l 500 687 l 500 625 m 0 750 l 250 750 l 250 812 l 0 812 l 0 750 m 500 750 l 750 750 l 750 812 l 500 812 l 500 750 m 0 875 l 250 875 l 250 937 l 0 937 l 0 875 m 500 875 l 750 875 l 750 937 l 500 937 l 500 875 "},"E":{"x_min":0,"x_max":750.0625,"ha":813,"o":"m 0 125 l 750 125 l 750 187 l 0 187 l 0 125 m 0 750 l 750 750 l 750 812 l 0 812 l 0 750 m 125 875 l 750 875 l 750 937 l 125 937 l 125 875 m 125 0 l 750 0 l 750 62 l 125 62 l 125 0 m 0 500 l 500 500 l 500 562 l 0 562 l 0 500 m 0 375 l 500 375 l 500 437 l 0 437 l 0 375 m 0 625 l 250 625 l 250 687 l 0 687 l 0 625 m 0 250 l 250 250 l 250 312 l 0 312 l 0 250 "},"y":{"x_min":0,"x_max":750.0625,"ha":813,"o":"m 0 500 l 750 500 l 750 562 l 0 562 l 0 500 m 125 375 l 625 375 l 625 437 l 125 437 l 125 375 m 250 250 l 500 250 l 500 312 l 250 312 l 250 250 m 250 125 l 500 125 l 500 187 l 250 187 l 250 125 m 250 0 l 500 0 l 500 62 l 250 62 l 250 0 m 0 625 l 250 625 l 250 687 l 0 687 l 0 625 m 500 625 l 750 625 l 750 687 l 500 687 l 500 625 m 0 750 l 250 750 l 250 812 l 0 812 l 0 750 m 500 750 l 750 750 l 750 812 l 500 812 l 500 750 m 0 875 l 250 875 l 250 937 l 0 937 l 0 875 m 500 875 l 750 875 l 750 937 l 500 937 l 500 875 "},"\"":{"x_min":0,"x_max":625.046875,"ha":688,"o":"m 0 750 l 250 750 l 250 812 l 0 812 l 0 750 m 375 875 l 625 875 l 625 937 l 375 937 l 375 875 m 0 875 l 250 875 l 250 937 l 0 937 l 0 875 m 375 750 l 625 750 l 625 812 l 375 812 l 375 750 "},"g":{"x_min":0,"x_max":750.0625,"ha":813,"o":"m 0 125 l 750 125 l 750 187 l 0 187 l 0 125 m 0 750 l 750 750 l 750 812 l 0 812 l 0 750 m 125 875 l 750 875 l 750 937 l 125 937 l 125 875 m 125 0 l 625 0 l 625 62 l 125 62 l 125 0 m 375 500 l 750 500 l 750 562 l 375 562 l 375 500 m 375 375 l 750 375 l 750 437 l 375 437 l 375 375 m 0 500 l 250 500 l 250 562 l 0 562 l 0 500 m 0 625 l 250 625 l 250 687 l 0 687 l 0 625 m 500 250 l 750 250 l 750 312 l 500 312 l 500 250 m 0 250 l 250 250 l 250 312 l 0 312 l 0 250 m 0 375 l 250 375 l 250 437 l 0 437 l 0 375 "},"ƒ":{"x_min":0,"x_max":750.0625,"ha":813,"o":"m 125 750 l 750 750 l 750 812 l 125 812 l 125 750 m 0 500 l 500 500 l 500 562 l 0 562 l 0 500 m 0 375 l 500 375 l 500 437 l 0 437 l 0 375 m 250 875 l 750 875 l 750 937 l 250 937 l 250 875 m 0 125 l 375 125 l 375 187 l 0 187 l 0 125 m 125 250 l 375 250 l 375 312 l 125 312 l 125 250 m 0 0 l 250 0 l 250 62 l 0 62 l 0 0 m 125 625 l 375 625 l 375 687 l 125 687 l 125 625 "},"e":{"x_min":0,"x_max":750.0625,"ha":813,"o":"m 0 125 l 750 125 l 750 187 l 0 187 l 0 125 m 0 750 l 750 750 l 750 812 l 0 812 l 0 750 m 125 875 l 750 875 l 750 937 l 125 937 l 125 875 m 125 0 l 750 0 l 750 62 l 125 62 l 125 0 m 0 500 l 500 500 l 500 562 l 0 562 l 0 500 m 0 375 l 500 375 l 500 437 l 0 437 l 0 375 m 0 625 l 250 625 l 250 687 l 0 687 l 0 625 m 0 250 l 250 250 l 250 312 l 0 312 l 0 250 "},"J":{"x_min":0,"x_max":750.0625,"ha":813,"o":"m 0 125 l 750 125 l 750 187 l 0 187 l 0 125 m 125 0 l 625 0 l 625 62 l 125 62 l 125 0 m 0 250 l 250 250 l 250 312 l 0 312 l 0 250 m 500 250 l 750 250 l 750 312 l 500 312 l 500 250 m 500 375 l 750 375 l 750 437 l 500 437 l 500 375 m 500 500 l 750 500 l 750 562 l 500 562 l 500 500 m 500 625 l 750 625 l 750 687 l 500 687 l 500 625 m 500 750 l 750 750 l 750 812 l 500 812 l 500 750 m 500 875 l 750 875 l 750 937 l 500 937 l 500 875 "},"|":{"x_min":0,"x_max":250.015625,"ha":313,"o":"m 0 0 l 250 0 l 250 62 l 0 62 l 0 0 m 0 125 l 250 125 l 250 187 l 0 187 l 0 125 m 0 250 l 250 250 l 250 312 l 0 312 l 0 250 m 0 375 l 250 375 l 250 437 l 0 437 l 0 375 m 0 500 l 250 500 l 250 562 l 0 562 l 0 500 m 0 625 l 250 625 l 250 687 l 0 687 l 0 625 m 0 750 l 250 750 l 250 812 l 0 812 l 0 750 m 0 875 l 250 875 l 250 937 l 0 937 l 0 875 m 0 1000 l 250 1000 l 250 1062 l 0 1062 l 0 1000 m 0 -125 l 250 -125 l 250 -62 l 0 -62 l 0 -125 "},"^":{"x_min":0,"x_max":750.0625,"ha":813,"o":"m 0 625 l 750 625 l 750 687 l 0 687 l 0 625 m 125 750 l 625 750 l 625 812 l 125 812 l 125 750 m 0 500 l 250 500 l 250 562 l 0 562 l 0 500 m 500 500 l 750 500 l 750 562 l 500 562 l 500 500 m 250 875 l 500 875 l 500 937 l 250 937 l 250 875 "},"q":{"x_min":0,"x_max":750.0625,"ha":813,"o":"m 0 125 l 750 125 l 750 187 l 0 187 l 0 125 m 0 750 l 750 750 l 750 812 l 0 812 l 0 750 m 125 875 l 625 875 l 625 937 l 125 937 l 125 875 m 125 0 l 625 0 l 625 62 l 125 62 l 125 0 m 250 -125 l 500 -125 l 500 -62 l 250 -62 l 250 -125 m 0 250 l 250 250 l 250 312 l 0 312 l 0 250 m 0 500 l 250 500 l 250 562 l 0 562 l 0 500 m 500 500 l 750 500 l 750 562 l 500 562 l 500 500 m 0 625 l 250 625 l 250 687 l 0 687 l 0 625 m 500 625 l 750 625 l 750 687 l 500 687 l 500 625 m 500 375 l 750 375 l 750 437 l 500 437 l 500 375 m 500 250 l 750 250 l 750 312 l 500 312 l 500 250 m 0 375 l 250 375 l 250 437 l 0 437 l 0 375 "},"b":{"x_min":0,"x_max":750.0625,"ha":813,"o":"m 0 125 l 750 125 l 750 187 l 0 187 l 0 125 m 0 375 l 750 375 l 750 437 l 0 437 l 0 375 m 0 500 l 750 500 l 750 562 l 0 562 l 0 500 m 0 750 l 750 750 l 750 812 l 0 812 l 0 750 m 0 875 l 625 875 l 625 937 l 0 937 l 0 875 m 0 0 l 625 0 l 625 62 l 0 62 l 0 0 m 500 625 l 750 625 l 750 687 l 500 687 l 500 625 m 0 250 l 250 250 l 250 312 l 0 312 l 0 250 m 500 250 l 750 250 l 750 312 l 500 312 l 500 250 m 0 625 l 250 625 l 250 687 l 0 687 l 0 625 "},"D":{"x_min":0,"x_max":750.0625,"ha":813,"o":"m 0 125 l 625 125 l 625 187 l 0 187 l 0 125 m 0 750 l 625 750 l 625 812 l 0 812 l 0 750 m 0 875 l 500 875 l 500 937 l 0 937 l 0 875 m 0 0 l 500 0 l 500 62 l 0 62 l 0 0 m 375 250 l 750 250 l 750 312 l 375 312 l 375 250 m 375 625 l 750 625 l 750 687 l 375 687 l 375 625 m 0 500 l 250 500 l 250 562 l 0 562 l 0 500 m 500 375 l 750 375 l 750 437 l 500 437 l 500 375 m 0 375 l 250 375 l 250 437 l 0 437 l 0 375 m 500 500 l 750 500 l 750 562 l 500 562 l 500 500 m 0 250 l 250 250 l 250 312 l 0 312 l 0 250 m 0 625 l 250 625 l 250 687 l 0 687 l 0 625 "},"∙":{"x_min":0,"x_max":250.015625,"ha":313,"o":"m 0 375 l 250 375 l 250 437 l 0 437 l 0 375 m 0 500 l 250 500 l 250 562 l 0 562 l 0 500 "},"z":{"x_min":0,"x_max":750.0625,"ha":813,"o":"m 0 0 l 750 0 l 750 62 l 0 62 l 0 0 m 0 125 l 750 125 l 750 187 l 0 187 l 0 125 m 0 750 l 750 750 l 750 812 l 0 812 l 0 750 m 0 875 l 750 875 l 750 937 l 0 937 l 0 875 m 250 500 l 625 500 l 625 562 l 250 562 l 250 500 m 0 250 l 375 250 l 375 312 l 0 312 l 0 250 m 125 375 l 500 375 l 500 437 l 125 437 l 125 375 m 375 625 l 750 625 l 750 687 l 375 687 l 375 625 "},"w":{"x_min":0,"x_max":1000.078125,"ha":1063,"o":"m 0 125 l 1000 125 l 1000 187 l 0 187 l 0 125 m 125 0 l 875 0 l 875 62 l 125 62 l 125 0 m 0 250 l 250 250 l 250 312 l 0 312 l 0 250 m 375 250 l 625 250 l 625 312 l 375 312 l 375 250 m 0 375 l 250 375 l 250 437 l 0 437 l 0 375 m 375 375 l 625 375 l 625 437 l 375 437 l 375 375 m 0 500 l 250 500 l 250 562 l 0 562 l 0 500 m 375 500 l 625 500 l 625 562 l 375 562 l 375 500 m 0 625 l 250 625 l 250 687 l 0 687 l 0 625 m 375 625 l 625 625 l 625 687 l 375 687 l 375 625 m 0 750 l 250 750 l 250 812 l 0 812 l 0 750 m 375 750 l 625 750 l 625 812 l 375 812 l 375 750 m 0 875 l 250 875 l 250 937 l 0 937 l 0 875 m 375 875 l 625 875 l 625 937 l 375 937 l 375 875 m 750 250 l 1000 250 l 1000 312 l 750 312 l 750 250 m 750 375 l 1000 375 l 1000 437 l 750 437 l 750 375 m 750 500 l 1000 500 l 1000 562 l 750 562 l 750 500 m 750 625 l 1000 625 l 1000 687 l 750 687 l 750 625 m 750 750 l 1000 750 l 1000 812 l 750 812 l 750 750 m 750 875 l 1000 875 l 1000 937 l 750 937 l 750 875 "},"$":{"x_min":0,"x_max":750.0625,"ha":813,"o":"m 0 125 l 750 125 l 750 187 l 0 187 l 0 125 m 0 750 l 750 750 l 750 812 l 0 812 l 0 750 m 125 375 l 750 375 l 750 437 l 125 437 l 125 375 m 125 875 l 750 875 l 750 937 l 125 937 l 125 875 m 0 0 l 625 0 l 625 62 l 0 62 l 0 0 m 0 500 l 625 500 l 625 562 l 0 562 l 0 500 m 250 -125 l 500 -125 l 500 -62 l 250 -62 l 250 -125 m 0 625 l 250 625 l 250 687 l 0 687 l 0 625 m 500 250 l 750 250 l 750 312 l 500 312 l 500 250 m 250 1000 l 500 1000 l 500 1062 l 250 1062 l 250 1000 "},"™":{"x_min":0,"x_max":1000.078125,"ha":1063,"o":"m 0 250 l 1000 250 l 1000 312 l 0 312 l 0 250 m 125 750 l 875 750 l 875 812 l 125 812 l 125 750 m 125 375 l 875 375 l 875 437 l 125 437 l 125 375 m 125 875 l 875 875 l 875 937 l 125 937 l 125 875 m 750 125 l 1000 125 l 1000 187 l 750 187 l 750 125 m 0 125 l 250 125 l 250 187 l 0 187 l 0 125 m 375 500 l 625 500 l 625 562 l 375 562 l 375 500 m 375 625 l 625 625 l 625 687 l 375 687 l 375 625 m 375 125 l 625 125 l 625 187 l 375 187 l 375 125 m 750 0 l 1000 0 l 1000 62 l 750 62 l 750 0 m 0 0 l 250 0 l 250 62 l 0 62 l 0 0 m 375 0 l 625 0 l 625 62 l 375 62 l 375 0 "},"\\":{"x_min":0,"x_max":1000.078125,"ha":1063,"o":"m 625 125 l 1000 125 l 1000 187 l 625 187 l 625 125 m 500 250 l 875 250 l 875 312 l 500 312 l 500 250 m 0 750 l 375 750 l 375 812 l 0 812 l 0 750 m 375 375 l 750 375 l 750 437 l 375 437 l 375 375 m 125 625 l 500 625 l 500 687 l 125 687 l 125 625 m 250 500 l 625 500 l 625 562 l 250 562 l 250 500 m 0 875 l 250 875 l 250 937 l 0 937 l 0 875 m 750 0 l 1000 0 l 1000 62 l 750 62 l 750 0 "},"~":{"x_min":0,"x_max":875.0625,"ha":938,"o":"m 375 375 l 875 375 l 875 437 l 375 437 l 375 375 m 0 500 l 500 500 l 500 562 l 0 562 l 0 500 m 375 250 l 750 250 l 750 312 l 375 312 l 375 250 m 125 625 l 500 625 l 500 687 l 125 687 l 125 625 m 625 500 l 875 500 l 875 562 l 625 562 l 625 500 m 0 375 l 250 375 l 250 437 l 0 437 l 0 375 "},"-":{"x_min":0,"x_max":750.0625,"ha":813,"o":"m 0 375 l 750 375 l 750 437 l 0 437 l 0 375 m 0 500 l 750 500 l 750 562 l 0 562 l 0 500 "},"Q":{"x_min":0,"x_max":750.0625,"ha":813,"o":"m 0 125 l 750 125 l 750 187 l 0 187 l 0 125 m 0 750 l 750 750 l 750 812 l 0 812 l 0 750 m 125 0 l 750 0 l 750 62 l 125 62 l 125 0 m 125 875 l 625 875 l 625 937 l 125 937 l 125 875 m 375 250 l 750 250 l 750 312 l 375 312 l 375 250 m 0 250 l 250 250 l 250 312 l 0 312 l 0 250 m 0 500 l 250 500 l 250 562 l 0 562 l 0 500 m 500 500 l 750 500 l 750 562 l 500 562 l 500 500 m 0 375 l 250 375 l 250 437 l 0 437 l 0 375 m 0 625 l 250 625 l 250 687 l 0 687 l 0 625 m 500 625 l 750 625 l 750 687 l 500 687 l 500 625 m 500 375 l 750 375 l 750 437 l 500 437 l 500 375 "},"M":{"x_min":0,"x_max":875.0625,"ha":938,"o":"m 0 500 l 875 500 l 875 562 l 0 562 l 0 500 m 0 625 l 875 625 l 875 687 l 0 687 l 0 625 m 500 750 l 875 750 l 875 812 l 500 812 l 500 750 m 0 750 l 375 750 l 375 812 l 0 812 l 0 750 m 0 0 l 250 0 l 250 62 l 0 62 l 0 0 m 0 875 l 250 875 l 250 937 l 0 937 l 0 875 m 0 375 l 250 375 l 250 437 l 0 437 l 0 375 m 625 875 l 875 875 l 875 937 l 625 937 l 625 875 m 0 125 l 250 125 l 250 187 l 0 187 l 0 125 m 0 250 l 250 250 l 250 312 l 0 312 l 0 250 m 625 0 l 875 0 l 875 62 l 625 62 l 625 0 m 625 250 l 875 250 l 875 312 l 625 312 l 625 250 m 625 375 l 875 375 l 875 437 l 625 437 l 625 375 m 625 125 l 875 125 l 875 187 l 625 187 l 625 125 m 375 375 l 500 375 l 500 437 l 375 437 l 375 375 "},"C":{"x_min":0,"x_max":750.0625,"ha":813,"o":"m 0 125 l 750 125 l 750 187 l 0 187 l 0 125 m 0 750 l 750 750 l 750 812 l 0 812 l 0 750 m 125 875 l 750 875 l 750 937 l 125 937 l 125 875 m 125 0 l 750 0 l 750 62 l 125 62 l 125 0 m 0 500 l 250 500 l 250 562 l 0 562 l 0 500 m 0 625 l 250 625 l 250 687 l 0 687 l 0 625 m 0 250 l 250 250 l 250 312 l 0 312 l 0 250 m 0 375 l 250 375 l 250 437 l 0 437 l 0 375 "},"[":{"x_min":0,"x_max":375.03125,"ha":438,"o":"m 0 0 l 375 0 l 375 62 l 0 62 l 0 0 m 0 125 l 375 125 l 375 187 l 0 187 l 0 125 m 0 750 l 375 750 l 375 812 l 0 812 l 0 750 m 0 875 l 375 875 l 375 937 l 0 937 l 0 875 m 0 500 l 250 500 l 250 562 l 0 562 l 0 500 m 0 250 l 250 250 l 250 312 l 0 312 l 0 250 m 0 375 l 250 375 l 250 437 l 0 437 l 0 375 m 0 625 l 250 625 l 250 687 l 0 687 l 0 625 "},"L":{"x_min":0,"x_max":750.0625,"ha":813,"o":"m 0 125 l 750 125 l 750 187 l 0 187 l 0 125 m 125 0 l 750 0 l 750 62 l 125 62 l 125 0 m 0 250 l 250 250 l 250 312 l 0 312 l 0 250 m 0 375 l 250 375 l 250 437 l 0 437 l 0 375 m 0 500 l 250 500 l 250 562 l 0 562 l 0 500 m 0 625 l 250 625 l 250 687 l 0 687 l 0 625 m 0 750 l 250 750 l 250 812 l 0 812 l 0 750 m 0 875 l 250 875 l 250 937 l 0 937 l 0 875 "},"!":{"x_min":0,"x_max":250.015625,"ha":313,"o":"m 0 0 l 250 0 l 250 62 l 0 62 l 0 0 m 0 875 l 250 875 l 250 937 l 0 937 l 0 875 m 0 750 l 250 750 l 250 812 l 0 812 l 0 750 m 0 625 l 250 625 l 250 687 l 0 687 l 0 625 m 0 500 l 250 500 l 250 562 l 0 562 l 0 500 m 0 375 l 250 375 l 250 437 l 0 437 l 0 375 m 0 125 l 250 125 l 250 187 l 0 187 l 0 125 "}," ":{"x_min":0,"x_max":0,"ha":813},"{":{"x_min":0,"x_max":500.046875,"ha":563,"o":"m 125 125 l 500 125 l 500 187 l 125 187 l 125 125 m 0 375 l 375 375 l 375 437 l 0 437 l 0 375 m 125 750 l 500 750 l 500 812 l 125 812 l 125 750 m 0 500 l 375 500 l 375 562 l 0 562 l 0 500 m 250 875 l 500 875 l 500 937 l 250 937 l 250 875 m 125 250 l 375 250 l 375 312 l 125 312 l 125 250 m 250 0 l 500 0 l 500 62 l 250 62 l 250 0 m 125 625 l 375 625 l 375 687 l 125 687 l 125 625 "},"X":{"x_min":0,"x_max":750.0625,"ha":813,"o":"m 0 250 l 750 250 l 750 312 l 0 312 l 0 250 m 0 625 l 750 625 l 750 687 l 0 687 l 0 625 m 125 500 l 625 500 l 625 562 l 125 562 l 125 500 m 125 375 l 625 375 l 625 437 l 125 437 l 125 375 m 500 0 l 750 0 l 750 62 l 500 62 l 500 0 m 0 125 l 250 125 l 250 187 l 0 187 l 0 125 m 0 875 l 250 875 l 250 937 l 0 937 l 0 875 m 500 125 l 750 125 l 750 187 l 500 187 l 500 125 m 0 750 l 250 750 l 250 812 l 0 812 l 0 750 m 500 875 l 750 875 l 750 937 l 500 937 l 500 875 m 0 0 l 250 0 l 250 62 l 0 62 l 0 0 m 500 750 l 750 750 l 750 812 l 500 812 l 500 750 "},"P":{"x_min":0,"x_max":750.0625,"ha":813,"o":"m 0 500 l 750 500 l 750 562 l 0 562 l 0 500 m 0 750 l 750 750 l 750 812 l 0 812 l 0 750 m 0 375 l 625 375 l 625 437 l 0 437 l 0 375 m 0 875 l 625 875 l 625 937 l 0 937 l 0 875 m 0 0 l 250 0 l 250 62 l 0 62 l 0 0 m 0 625 l 250 625 l 250 687 l 0 687 l 0 625 m 500 625 l 750 625 l 750 687 l 500 687 l 500 625 m 0 125 l 250 125 l 250 187 l 0 187 l 0 125 m 0 250 l 250 250 l 250 312 l 0 312 l 0 250 "},"%":{"x_min":0,"x_max":1000.078125,"ha":1063,"o":"m 625 0 l 1000 0 l 1000 62 l 625 62 l 625 0 m 125 250 l 500 250 l 500 312 l 125 312 l 125 250 m 375 500 l 750 500 l 750 562 l 375 562 l 375 500 m 0 875 l 375 875 l 375 937 l 0 937 l 0 875 m 625 750 l 1000 750 l 1000 812 l 625 812 l 625 750 m 0 625 l 375 625 l 375 687 l 0 687 l 0 625 m 250 375 l 625 375 l 625 437 l 250 437 l 250 375 m 0 125 l 375 125 l 375 187 l 0 187 l 0 125 m 625 250 l 1000 250 l 1000 312 l 625 312 l 625 250 m 500 625 l 875 625 l 875 687 l 500 687 l 500 625 m 750 875 l 1000 875 l 1000 937 l 750 937 l 750 875 m 0 0 l 250 0 l 250 62 l 0 62 l 0 0 m 625 125 l 750 125 l 750 187 l 625 187 l 625 125 m 0 750 l 125 750 l 125 812 l 0 812 l 0 750 m 875 125 l 1000 125 l 1000 187 l 875 187 l 875 125 m 250 750 l 375 750 l 375 812 l 250 812 l 250 750 "},"#":{"x_min":0,"x_max":875.0625,"ha":938,"o":"m 0 125 l 875 125 l 875 187 l 0 187 l 0 125 m 0 250 l 875 250 l 875 312 l 0 312 l 0 250 m 0 750 l 875 750 l 875 812 l 0 812 l 0 750 m 0 625 l 875 625 l 875 687 l 0 687 l 0 625 m 125 875 l 375 875 l 375 937 l 125 937 l 125 875 m 500 375 l 750 375 l 750 437 l 500 437 l 500 375 m 125 500 l 375 500 l 375 562 l 125 562 l 125 500 m 500 500 l 750 500 l 750 562 l 500 562 l 500 500 m 500 0 l 750 0 l 750 62 l 500 62 l 500 0 m 500 875 l 750 875 l 750 937 l 500 937 l 500 875 m 125 0 l 375 0 l 375 62 l 125 62 l 125 0 m 125 375 l 375 375 l 375 437 l 125 437 l 125 375 "},"_":{"x_min":0,"x_max":750.0625,"ha":813,"o":"m 0 -125 l 750 -125 l 750 -62 l 0 -62 l 0 -125 m 0 0 l 750 0 l 750 62 l 0 62 l 0 0 "},"+":{"x_min":0,"x_max":750.0625,"ha":813,"o":"m 0 375 l 750 375 l 750 437 l 0 437 l 0 375 m 0 500 l 750 500 l 750 562 l 0 562 l 0 500 m 250 125 l 500 125 l 500 187 l 250 187 l 250 125 m 250 250 l 500 250 l 500 312 l 250 312 l 250 250 m 250 625 l 500 625 l 500 687 l 250 687 l 250 625 m 250 750 l 500 750 l 500 812 l 250 812 l 250 750 "},")":{"x_min":0,"x_max":375.03125,"ha":438,"o":"m 0 125 l 375 125 l 375 187 l 0 187 l 0 125 m 0 750 l 375 750 l 375 812 l 0 812 l 0 750 m 0 875 l 250 875 l 250 937 l 0 937 l 0 875 m 125 375 l 375 375 l 375 437 l 125 437 l 125 375 m 125 500 l 375 500 l 375 562 l 125 562 l 125 500 m 125 625 l 375 625 l 375 687 l 125 687 l 125 625 m 125 250 l 375 250 l 375 312 l 125 312 l 125 250 m 0 0 l 250 0 l 250 62 l 0 62 l 0 0 "},"'":{"x_min":0,"x_max":250.015625,"ha":313,"o":"m 0 750 l 250 750 l 250 812 l 0 812 l 0 750 m 0 875 l 250 875 l 250 937 l 0 937 l 0 875 "},"}":{"x_min":0,"x_max":500.046875,"ha":563,"o":"m 0 125 l 375 125 l 375 187 l 0 187 l 0 125 m 125 375 l 500 375 l 500 437 l 125 437 l 125 375 m 0 750 l 375 750 l 375 812 l 0 812 l 0 750 m 125 500 l 500 500 l 500 562 l 125 562 l 125 500 m 0 875 l 250 875 l 250 937 l 0 937 l 0 875 m 125 250 l 375 250 l 375 312 l 125 312 l 125 250 m 0 0 l 250 0 l 250 62 l 0 62 l 0 0 m 125 625 l 375 625 l 375 687 l 125 687 l 125 625 "},"a":{"x_min":0,"x_max":750.0625,"ha":813,"o":"m 0 375 l 750 375 l 750 437 l 0 437 l 0 375 m 0 500 l 750 500 l 750 562 l 0 562 l 0 500 m 0 750 l 750 750 l 750 812 l 0 812 l 0 750 m 125 875 l 625 875 l 625 937 l 125 937 l 125 875 m 500 250 l 750 250 l 750 312 l 500 312 l 500 250 m 0 0 l 250 0 l 250 62 l 0 62 l 0 0 m 0 125 l 250 125 l 250 187 l 0 187 l 0 125 m 500 125 l 750 125 l 750 187 l 500 187 l 500 125 m 0 625 l 250 625 l 250 687 l 0 687 l 0 625 m 0 250 l 250 250 l 250 312 l 0 312 l 0 250 m 500 625 l 750 625 l 750 687 l 500 687 l 500 625 m 500 0 l 750 0 l 750 62 l 500 62 l 500 0 "},"T":{"x_min":0,"x_max":750.0625,"ha":813,"o":"m 0 750 l 750 750 l 750 812 l 0 812 l 0 750 m 0 875 l 750 875 l 750 937 l 0 937 l 0 875 m 250 0 l 500 0 l 500 62 l 250 62 l 250 0 m 250 125 l 500 125 l 500 187 l 250 187 l 250 125 m 250 500 l 500 500 l 500 562 l 250 562 l 250 500 m 250 625 l 500 625 l 500 687 l 250 687 l 250 625 m 250 250 l 500 250 l 500 312 l 250 312 l 250 250 m 250 375 l 500 375 l 500 437 l 250 437 l 250 375 "},"=":{"x_min":0,"x_max":750.0625,"ha":813,"o":"m 0 125 l 750 125 l 750 187 l 0 187 l 0 125 m 0 250 l 750 250 l 750 312 l 0 312 l 0 250 m 0 625 l 750 625 l 750 687 l 0 687 l 0 625 m 0 750 l 750 750 l 750 812 l 0 812 l 0 750 "},"N":{"x_min":0,"x_max":750.0625,"ha":813,"o":"m 0 500 l 750 500 l 750 562 l 0 562 l 0 500 m 0 625 l 750 625 l 750 687 l 0 687 l 0 625 m 0 750 l 375 750 l 375 812 l 0 812 l 0 750 m 375 375 l 750 375 l 750 437 l 375 437 l 375 375 m 0 875 l 250 875 l 250 937 l 0 937 l 0 875 m 500 250 l 750 250 l 750 312 l 500 312 l 500 250 m 0 375 l 250 375 l 250 437 l 0 437 l 0 375 m 500 125 l 750 125 l 750 187 l 500 187 l 500 125 m 500 0 l 750 0 l 750 62 l 500 62 l 500 0 m 0 250 l 250 250 l 250 312 l 0 312 l 0 250 m 500 875 l 750 875 l 750 937 l 500 937 l 500 875 m 500 750 l 750 750 l 750 812 l 500 812 l 500 750 m 0 0 l 250 0 l 250 62 l 0 62 l 0 0 m 0 125 l 250 125 l 250 187 l 0 187 l 0 125 "},"":{"x_min":0,"x_max":750.0625,"ha":813,"o":"m 0 0 l 750 0 l 750 62 l 0 62 l 0 0 m 0 125 l 750 125 l 750 187 l 0 187 l 0 125 m 0 250 l 750 250 l 750 312 l 0 312 l 0 250 m 0 375 l 750 375 l 750 437 l 0 437 l 0 375 m 0 500 l 750 500 l 750 562 l 0 562 l 0 500 m 0 625 l 750 625 l 750 687 l 0 687 l 0 625 m 0 750 l 750 750 l 750 812 l 0 812 l 0 750 m 0 875 l 750 875 l 750 937 l 0 937 l 0 875 "},"2":{"x_min":0,"x_max":750.0625,"ha":813,"o":"m 0 0 l 750 0 l 750 62 l 0 62 l 0 0 m 0 125 l 750 125 l 750 187 l 0 187 l 0 125 m 0 750 l 750 750 l 750 812 l 0 812 l 0 750 m 0 875 l 625 875 l 625 937 l 0 937 l 0 875 m 125 500 l 750 500 l 750 562 l 125 562 l 125 500 m 0 375 l 625 375 l 625 437 l 0 437 l 0 375 m 500 625 l 750 625 l 750 687 l 500 687 l 500 625 m 0 250 l 250 250 l 250 312 l 0 312 l 0 250 "},"j":{"x_min":0,"x_max":750.0625,"ha":813,"o":"m 0 125 l 750 125 l 750 187 l 0 187 l 0 125 m 125 0 l 625 0 l 625 62 l 125 62 l 125 0 m 0 250 l 250 250 l 250 312 l 0 312 l 0 250 m 500 250 l 750 250 l 750 312 l 500 312 l 500 250 m 500 375 l 750 375 l 750 437 l 500 437 l 500 375 m 500 500 l 750 500 l 750 562 l 500 562 l 500 500 m 500 625 l 750 625 l 750 687 l 500 687 l 500 625 m 500 750 l 750 750 l 750 812 l 500 812 l 500 750 m 500 875 l 750 875 l 750 937 l 500 937 l 500 875 "},"Z":{"x_min":0,"x_max":750.0625,"ha":813,"o":"m 0 0 l 750 0 l 750 62 l 0 62 l 0 0 m 0 125 l 750 125 l 750 187 l 0 187 l 0 125 m 0 750 l 750 750 l 750 812 l 0 812 l 0 750 m 0 875 l 750 875 l 750 937 l 0 937 l 0 875 m 250 500 l 625 500 l 625 562 l 250 562 l 250 500 m 0 250 l 375 250 l 375 312 l 0 312 l 0 250 m 125 375 l 500 375 l 500 437 l 125 437 l 125 375 m 375 625 l 750 625 l 750 687 l 375 687 l 375 625 "},"u":{"x_min":0,"x_max":750.0625,"ha":813,"o":"m 0 125 l 750 125 l 750 187 l 0 187 l 0 125 m 125 0 l 625 0 l 625 62 l 125 62 l 125 0 m 0 250 l 250 250 l 250 312 l 0 312 l 0 250 m 500 250 l 750 250 l 750 312 l 500 312 l 500 250 m 0 375 l 250 375 l 250 437 l 0 437 l 0 375 m 500 375 l 750 375 l 750 437 l 500 437 l 500 375 m 0 500 l 250 500 l 250 562 l 0 562 l 0 500 m 500 500 l 750 500 l 750 562 l 500 562 l 500 500 m 0 625 l 250 625 l 250 687 l 0 687 l 0 625 m 500 625 l 750 625 l 750 687 l 500 687 l 500 625 m 0 750 l 250 750 l 250 812 l 0 812 l 0 750 m 500 750 l 750 750 l 750 812 l 500 812 l 500 750 m 0 875 l 250 875 l 250 937 l 0 937 l 0 875 m 500 875 l 750 875 l 750 937 l 500 937 l 500 875 "},"1":{"x_min":0,"x_max":250.015625,"ha":313,"o":"m 0 0 l 250 0 l 250 62 l 0 62 l 0 0 m 0 125 l 250 125 l 250 187 l 0 187 l 0 125 m 0 250 l 250 250 l 250 312 l 0 312 l 0 250 m 0 375 l 250 375 l 250 437 l 0 437 l 0 375 m 0 500 l 250 500 l 250 562 l 0 562 l 0 500 m 0 625 l 250 625 l 250 687 l 0 687 l 0 625 m 0 750 l 250 750 l 250 812 l 0 812 l 0 750 m 0 875 l 250 875 l 250 937 l 0 937 l 0 875 "},"k":{"x_min":0,"x_max":750.0625,"ha":813,"o":"m 0 250 l 625 250 l 625 312 l 0 312 l 0 250 m 0 625 l 625 625 l 625 687 l 0 687 l 0 625 m 0 500 l 500 500 l 500 562 l 0 562 l 0 500 m 0 375 l 500 375 l 500 437 l 0 437 l 0 375 m 375 125 l 750 125 l 750 187 l 375 187 l 375 125 m 375 750 l 750 750 l 750 812 l 375 812 l 375 750 m 0 875 l 250 875 l 250 937 l 0 937 l 0 875 m 500 875 l 750 875 l 750 937 l 500 937 l 500 875 m 0 0 l 250 0 l 250 62 l 0 62 l 0 0 m 500 0 l 750 0 l 750 62 l 500 62 l 500 0 m 0 125 l 250 125 l 250 187 l 0 187 l 0 125 m 0 750 l 250 750 l 250 812 l 0 812 l 0 750 "},"<":{"x_min":0,"x_max":625.046875,"ha":688,"o":"m 250 125 l 625 125 l 625 187 l 250 187 l 250 125 m 0 375 l 375 375 l 375 437 l 0 437 l 0 375 m 125 625 l 500 625 l 500 687 l 125 687 l 125 625 m 125 250 l 500 250 l 500 312 l 125 312 l 125 250 m 0 500 l 375 500 l 375 562 l 0 562 l 0 500 m 250 750 l 625 750 l 625 812 l 250 812 l 250 750 m 375 875 l 625 875 l 625 937 l 375 937 l 375 875 m 375 0 l 625 0 l 625 62 l 375 62 l 375 0 "},"t":{"x_min":0,"x_max":750.0625,"ha":813,"o":"m 0 750 l 750 750 l 750 812 l 0 812 l 0 750 m 0 875 l 750 875 l 750 937 l 0 937 l 0 875 m 250 0 l 500 0 l 500 62 l 250 62 l 250 0 m 250 125 l 500 125 l 500 187 l 250 187 l 250 125 m 250 500 l 500 500 l 500 562 l 250 562 l 250 500 m 250 625 l 500 625 l 500 687 l 250 687 l 250 625 m 250 250 l 500 250 l 500 312 l 250 312 l 250 250 m 250 375 l 500 375 l 500 437 l 250 437 l 250 375 "},"W":{"x_min":0,"x_max":875.0625,"ha":938,"o":"m 0 250 l 875 250 l 875 312 l 0 312 l 0 250 m 0 375 l 875 375 l 875 437 l 0 437 l 0 375 m 500 125 l 875 125 l 875 187 l 500 187 l 500 125 m 0 125 l 375 125 l 375 187 l 0 187 l 0 125 m 0 875 l 250 875 l 250 937 l 0 937 l 0 875 m 0 0 l 250 0 l 250 62 l 0 62 l 0 0 m 0 500 l 250 500 l 250 562 l 0 562 l 0 500 m 625 750 l 875 750 l 875 812 l 625 812 l 625 750 m 625 875 l 875 875 l 875 937 l 625 937 l 625 875 m 0 625 l 250 625 l 250 687 l 0 687 l 0 625 m 625 625 l 875 625 l 875 687 l 625 687 l 625 625 m 0 750 l 250 750 l 250 812 l 0 812 l 0 750 m 625 500 l 875 500 l 875 562 l 625 562 l 625 500 m 625 0 l 875 0 l 875 62 l 625 62 l 625 0 m 375 500 l 500 500 l 500 562 l 375 562 l 375 500 "},"v":{"x_min":0,"x_max":750.0625,"ha":813,"o":"m 0 250 l 625 250 l 625 312 l 0 312 l 0 250 m 0 125 l 500 125 l 500 187 l 0 187 l 0 125 m 375 375 l 750 375 l 750 437 l 375 437 l 375 375 m 0 0 l 375 0 l 375 62 l 0 62 l 0 0 m 0 875 l 250 875 l 250 937 l 0 937 l 0 875 m 0 500 l 250 500 l 250 562 l 0 562 l 0 500 m 500 500 l 750 500 l 750 562 l 500 562 l 500 500 m 0 625 l 250 625 l 250 687 l 0 687 l 0 625 m 500 625 l 750 625 l 750 687 l 500 687 l 500 625 m 0 750 l 250 750 l 250 812 l 0 812 l 0 750 m 500 750 l 750 750 l 750 812 l 500 812 l 500 750 m 0 375 l 250 375 l 250 437 l 0 437 l 0 375 m 500 875 l 750 875 l 750 937 l 500 937 l 500 875 "},">":{"x_min":0,"x_max":625.046875,"ha":688,"o":"m 0 125 l 375 125 l 375 187 l 0 187 l 0 125 m 250 375 l 625 375 l 625 437 l 250 437 l 250 375 m 125 625 l 500 625 l 500 687 l 125 687 l 125 625 m 125 250 l 500 250 l 500 312 l 125 312 l 125 250 m 250 500 l 625 500 l 625 562 l 250 562 l 250 500 m 0 750 l 375 750 l 375 812 l 0 812 l 0 750 m 0 875 l 250 875 l 250 937 l 0 937 l 0 875 m 0 0 l 250 0 l 250 62 l 0 62 l 0 0 "},"s":{"x_min":0,"x_max":750.0625,"ha":813,"o":"m 0 125 l 750 125 l 750 187 l 0 187 l 0 125 m 0 750 l 750 750 l 750 812 l 0 812 l 0 750 m 125 375 l 750 375 l 750 437 l 125 437 l 125 375 m 125 875 l 750 875 l 750 937 l 125 937 l 125 875 m 0 500 l 625 500 l 625 562 l 0 562 l 0 500 m 0 0 l 625 0 l 625 62 l 0 62 l 0 0 m 0 625 l 250 625 l 250 687 l 0 687 l 0 625 m 500 250 l 750 250 l 750 312 l 500 312 l 500 250 "},"B":{"x_min":0,"x_max":750.0625,"ha":813,"o":"m 0 125 l 750 125 l 750 187 l 0 187 l 0 125 m 0 750 l 750 750 l 750 812 l 0 812 l 0 750 m 0 0 l 625 0 l 625 62 l 0 62 l 0 0 m 0 375 l 625 375 l 625 437 l 0 437 l 0 375 m 0 875 l 625 875 l 625 937 l 0 937 l 0 875 m 0 500 l 625 500 l 625 562 l 0 562 l 0 500 m 0 250 l 250 250 l 250 312 l 0 312 l 0 250 m 0 625 l 250 625 l 250 687 l 0 687 l 0 625 m 500 625 l 750 625 l 750 687 l 500 687 l 500 625 m 500 250 l 750 250 l 750 312 l 500 312 l 500 250 "},"?":{"x_min":0,"x_max":750.0625,"ha":813,"o":"m 0 750 l 750 750 l 750 812 l 0 812 l 0 750 m 0 875 l 625 875 l 625 937 l 0 937 l 0 875 m 250 500 l 750 500 l 750 562 l 250 562 l 250 500 m 250 375 l 625 375 l 625 437 l 250 437 l 250 375 m 500 625 l 750 625 l 750 687 l 500 687 l 500 625 m 250 0 l 500 0 l 500 62 l 250 62 l 250 0 m 250 125 l 500 125 l 500 187 l 250 187 l 250 125 "},"H":{"x_min":0,"x_max":750.0625,"ha":813,"o":"m 0 375 l 750 375 l 750 437 l 0 437 l 0 375 m 0 500 l 750 500 l 750 562 l 0 562 l 0 500 m 0 0 l 250 0 l 250 62 l 0 62 l 0 0 m 500 0 l 750 0 l 750 62 l 500 62 l 500 0 m 0 250 l 250 250 l 250 312 l 0 312 l 0 250 m 500 250 l 750 250 l 750 312 l 500 312 l 500 250 m 0 125 l 250 125 l 250 187 l 0 187 l 0 125 m 500 125 l 750 125 l 750 187 l 500 187 l 500 125 m 0 625 l 250 625 l 250 687 l 0 687 l 0 625 m 500 625 l 750 625 l 750 687 l 500 687 l 500 625 m 0 750 l 250 750 l 250 812 l 0 812 l 0 750 m 500 750 l 750 750 l 750 812 l 500 812 l 500 750 m 0 875 l 250 875 l 250 937 l 0 937 l 0 875 m 500 875 l 750 875 l 750 937 l 500 937 l 500 875 "},"c":{"x_min":0,"x_max":750.0625,"ha":813,"o":"m 0 125 l 750 125 l 750 187 l 0 187 l 0 125 m 0 750 l 750 750 l 750 812 l 0 812 l 0 750 m 125 0 l 625 0 l 625 62 l 125 62 l 125 0 m 125 875 l 625 875 l 625 937 l 125 937 l 125 875 m 0 625 l 250 625 l 250 687 l 0 687 l 0 625 m 0 500 l 250 500 l 250 562 l 0 562 l 0 500 m 500 250 l 750 250 l 750 312 l 500 312 l 500 250 m 0 250 l 250 250 l 250 312 l 0 312 l 0 250 m 500 625 l 750 625 l 750 687 l 500 687 l 500 625 m 0 375 l 250 375 l 250 437 l 0 437 l 0 375 "},"&":{"x_min":0,"x_max":750.0625,"ha":813,"o":"m 0 125 l 750 125 l 750 187 l 0 187 l 0 125 m 0 750 l 750 750 l 750 812 l 0 812 l 0 750 m 125 875 l 750 875 l 750 937 l 125 937 l 125 875 m 125 0 l 750 0 l 750 62 l 125 62 l 125 0 m 0 375 l 500 375 l 500 437 l 0 437 l 0 375 m 0 500 l 500 500 l 500 562 l 0 562 l 0 500 m 250 -125 l 500 -125 l 500 -62 l 250 -62 l 250 -125 m 0 625 l 250 625 l 250 687 l 0 687 l 0 625 m 250 1000 l 500 1000 l 500 1062 l 250 1062 l 250 1000 m 0 250 l 250 250 l 250 312 l 0 312 l 0 250 "},"I":{"x_min":0,"x_max":750.0625,"ha":813,"o":"m 0 0 l 750 0 l 750 62 l 0 62 l 0 0 m 0 125 l 750 125 l 750 187 l 0 187 l 0 125 m 0 750 l 750 750 l 750 812 l 0 812 l 0 750 m 0 875 l 750 875 l 750 937 l 0 937 l 0 875 m 250 500 l 500 500 l 500 562 l 250 562 l 250 500 m 250 250 l 500 250 l 500 312 l 250 312 l 250 250 m 250 375 l 500 375 l 500 437 l 250 437 l 250 375 m 250 625 l 500 625 l 500 687 l 250 687 l 250 625 "},"G":{"x_min":0,"x_max":750.0625,"ha":813,"o":"m 0 125 l 750 125 l 750 187 l 0 187 l 0 125 m 0 750 l 750 750 l 750 812 l 0 812 l 0 750 m 125 0 l 750 0 l 750 62 l 125 62 l 125 0 m 125 875 l 750 875 l 750 937 l 125 937 l 125 875 m 375 500 l 750 500 l 750 562 l 375 562 l 375 500 m 375 375 l 750 375 l 750 437 l 375 437 l 375 375 m 0 625 l 250 625 l 250 687 l 0 687 l 0 625 m 0 500 l 250 500 l 250 562 l 0 562 l 0 500 m 500 250 l 750 250 l 750 312 l 500 312 l 500 250 m 0 250 l 250 250 l 250 312 l 0 312 l 0 250 m 0 375 l 250 375 l 250 437 l 0 437 l 0 375 "},"(":{"x_min":0,"x_max":375.03125,"ha":438,"o":"m 0 125 l 375 125 l 375 187 l 0 187 l 0 125 m 0 750 l 375 750 l 375 812 l 0 812 l 0 750 m 125 875 l 375 875 l 375 937 l 125 937 l 125 875 m 0 375 l 250 375 l 250 437 l 0 437 l 0 375 m 0 500 l 250 500 l 250 562 l 0 562 l 0 500 m 0 625 l 250 625 l 250 687 l 0 687 l 0 625 m 0 250 l 250 250 l 250 312 l 0 312 l 0 250 m 125 0 l 375 0 l 375 62 l 125 62 l 125 0 "},"`":{"x_min":0,"x_max":250.015625,"ha":313,"o":"m 0 750 l 250 750 l 250 812 l 0 812 l 0 750 m 0 875 l 250 875 l 250 937 l 0 937 l 0 875 "},"U":{"x_min":0,"x_max":750.0625,"ha":813,"o":"m 0 125 l 750 125 l 750 187 l 0 187 l 0 125 m 125 0 l 625 0 l 625 62 l 125 62 l 125 0 m 0 250 l 250 250 l 250 312 l 0 312 l 0 250 m 500 250 l 750 250 l 750 312 l 500 312 l 500 250 m 0 375 l 250 375 l 250 437 l 0 437 l 0 375 m 500 375 l 750 375 l 750 437 l 500 437 l 500 375 m 0 500 l 250 500 l 250 562 l 0 562 l 0 500 m 500 500 l 750 500 l 750 562 l 500 562 l 500 500 m 0 625 l 250 625 l 250 687 l 0 687 l 0 625 m 500 625 l 750 625 l 750 687 l 500 687 l 500 625 m 0 750 l 250 750 l 250 812 l 0 812 l 0 750 m 500 750 l 750 750 l 750 812 l 500 812 l 500 750 m 0 875 l 250 875 l 250 937 l 0 937 l 0 875 m 500 875 l 750 875 l 750 937 l 500 937 l 500 875 "},"F":{"x_min":0,"x_max":750.0625,"ha":813,"o":"m 0 750 l 750 750 l 750 812 l 0 812 l 0 750 m 125 875 l 750 875 l 750 937 l 125 937 l 125 875 m 0 375 l 500 375 l 500 437 l 0 437 l 0 375 m 0 500 l 500 500 l 500 562 l 0 562 l 0 500 m 0 0 l 250 0 l 250 62 l 0 62 l 0 0 m 0 250 l 250 250 l 250 312 l 0 312 l 0 250 m 0 125 l 250 125 l 250 187 l 0 187 l 0 125 m 0 625 l 250 625 l 250 687 l 0 687 l 0 625 "},"r":{"x_min":0,"x_max":750.0625,"ha":813,"o":"m 0 500 l 750 500 l 750 562 l 0 562 l 0 500 m 0 750 l 750 750 l 750 812 l 0 812 l 0 750 m 0 375 l 625 375 l 625 437 l 0 437 l 0 375 m 125 875 l 625 875 l 625 937 l 125 937 l 125 875 m 375 250 l 750 250 l 750 312 l 375 312 l 375 250 m 500 625 l 750 625 l 750 687 l 500 687 l 500 625 m 0 0 l 250 0 l 250 62 l 0 62 l 0 0 m 500 125 l 750 125 l 750 187 l 500 187 l 500 125 m 500 0 l 750 0 l 750 62 l 500 62 l 500 0 m 0 250 l 250 250 l 250 312 l 0 312 l 0 250 m 0 625 l 250 625 l 250 687 l 0 687 l 0 625 m 0 125 l 250 125 l 250 187 l 0 187 l 0 125 "},":":{"x_min":0,"x_max":250.015625,"ha":313,"o":"m 0 0 l 250 0 l 250 62 l 0 62 l 0 0 m 0 125 l 250 125 l 250 187 l 0 187 l 0 125 m 0 750 l 250 750 l 250 812 l 0 812 l 0 750 m 0 875 l 250 875 l 250 937 l 0 937 l 0 875 "},"x":{"x_min":0,"x_max":750.0625,"ha":813,"o":"m 0 250 l 750 250 l 750 312 l 0 312 l 0 250 m 0 625 l 750 625 l 750 687 l 0 687 l 0 625 m 125 500 l 625 500 l 625 562 l 125 562 l 125 500 m 125 375 l 625 375 l 625 437 l 125 437 l 125 375 m 500 0 l 750 0 l 750 62 l 500 62 l 500 0 m 0 125 l 250 125 l 250 187 l 0 187 l 0 125 m 0 875 l 250 875 l 250 937 l 0 937 l 0 875 m 500 125 l 750 125 l 750 187 l 500 187 l 500 125 m 0 750 l 250 750 l 250 812 l 0 812 l 0 750 m 500 875 l 750 875 l 750 937 l 500 937 l 500 875 m 0 0 l 250 0 l 250 62 l 0 62 l 0 0 m 500 750 l 750 750 l 750 812 l 500 812 l 500 750 "},"*":{"x_min":0,"x_max":750.0625,"ha":813,"o":"m 0 375 l 750 375 l 750 437 l 0 437 l 0 375 m 0 625 l 750 625 l 750 687 l 0 687 l 0 625 m 0 750 l 750 750 l 750 812 l 0 812 l 0 750 m 125 500 l 625 500 l 625 562 l 125 562 l 125 500 m 250 875 l 500 875 l 500 937 l 250 937 l 250 875 m 0 250 l 250 250 l 250 312 l 0 312 l 0 250 m 500 250 l 750 250 l 750 312 l 500 312 l 500 250 "},"V":{"x_min":0,"x_max":750.0625,"ha":813,"o":"m 0 250 l 750 250 l 750 312 l 0 312 l 0 250 m 125 125 l 625 125 l 625 187 l 125 187 l 125 125 m 500 875 l 750 875 l 750 937 l 500 937 l 500 875 m 0 375 l 250 375 l 250 437 l 0 437 l 0 375 m 500 375 l 750 375 l 750 437 l 500 437 l 500 375 m 0 500 l 250 500 l 250 562 l 0 562 l 0 500 m 500 500 l 750 500 l 750 562 l 500 562 l 500 500 m 0 625 l 250 625 l 250 687 l 0 687 l 0 625 m 500 625 l 750 625 l 750 687 l 500 687 l 500 625 m 0 750 l 250 750 l 250 812 l 0 812 l 0 750 m 500 750 l 750 750 l 750 812 l 500 812 l 500 750 m 0 875 l 250 875 l 250 937 l 0 937 l 0 875 m 250 0 l 500 0 l 500 62 l 250 62 l 250 0 "},"h":{"x_min":0,"x_max":750.0625,"ha":813,"o":"m 0 375 l 750 375 l 750 437 l 0 437 l 0 375 m 0 500 l 750 500 l 750 562 l 0 562 l 0 500 m 0 0 l 250 0 l 250 62 l 0 62 l 0 0 m 500 0 l 750 0 l 750 62 l 500 62 l 500 0 m 0 250 l 250 250 l 250 312 l 0 312 l 0 250 m 500 250 l 750 250 l 750 312 l 500 312 l 500 250 m 0 125 l 250 125 l 250 187 l 0 187 l 0 125 m 500 125 l 750 125 l 750 187 l 500 187 l 500 125 m 0 625 l 250 625 l 250 687 l 0 687 l 0 625 m 500 625 l 750 625 l 750 687 l 500 687 l 500 625 m 0 750 l 250 750 l 250 812 l 0 812 l 0 750 m 500 750 l 750 750 l 750 812 l 500 812 l 500 750 m 0 875 l 250 875 l 250 937 l 0 937 l 0 875 m 500 875 l 750 875 l 750 937 l 500 937 l 500 875 "},"0":{"x_min":0,"x_max":750.0625,"ha":813,"o":"m 0 125 l 750 125 l 750 187 l 0 187 l 0 125 m 0 750 l 750 750 l 750 812 l 0 812 l 0 750 m 125 875 l 625 875 l 625 937 l 125 937 l 125 875 m 125 0 l 625 0 l 625 62 l 125 62 l 125 0 m 500 375 l 750 375 l 750 437 l 500 437 l 500 375 m 0 250 l 250 250 l 250 312 l 0 312 l 0 250 m 0 500 l 250 500 l 250 562 l 0 562 l 0 500 m 500 500 l 750 500 l 750 562 l 500 562 l 500 500 m 0 625 l 250 625 l 250 687 l 0 687 l 0 625 m 0 375 l 250 375 l 250 437 l 0 437 l 0 375 m 500 250 l 750 250 l 750 312 l 500 312 l 500 250 m 500 625 l 750 625 l 750 687 l 500 687 l 500 625 "},".":{"x_min":0,"x_max":250.015625,"ha":313,"o":"m 0 0 l 250 0 l 250 62 l 0 62 l 0 0 m 0 125 l 250 125 l 250 187 l 0 187 l 0 125 "},"@":{"x_min":0,"x_max":1000.078125,"ha":1063,"o":"m 0 750 l 1000 750 l 1000 812 l 0 812 l 0 750 m 125 875 l 875 875 l 875 937 l 125 937 l 125 875 m 375 125 l 1000 125 l 1000 187 l 375 187 l 375 125 m 375 375 l 1000 375 l 1000 437 l 375 437 l 375 375 m 500 500 l 1000 500 l 1000 562 l 500 562 l 500 500 m 500 0 l 875 0 l 875 62 l 500 62 l 500 0 m 0 375 l 250 375 l 250 437 l 0 437 l 0 375 m 0 0 l 250 0 l 250 62 l 0 62 l 0 0 m 0 500 l 250 500 l 250 562 l 0 562 l 0 500 m 0 250 l 250 250 l 250 312 l 0 312 l 0 250 m 375 250 l 625 250 l 625 312 l 375 312 l 375 250 m 0 125 l 250 125 l 250 187 l 0 187 l 0 125 m 0 625 l 250 625 l 250 687 l 0 687 l 0 625 m 750 625 l 1000 625 l 1000 687 l 750 687 l 750 625 m 750 250 l 1000 250 l 1000 312 l 750 312 l 750 250 "},"f":{"x_min":0,"x_max":750.0625,"ha":813,"o":"m 0 750 l 750 750 l 750 812 l 0 812 l 0 750 m 125 875 l 750 875 l 750 937 l 125 937 l 125 875 m 0 375 l 500 375 l 500 437 l 0 437 l 0 375 m 0 500 l 500 500 l 500 562 l 0 562 l 0 500 m 0 0 l 250 0 l 250 62 l 0 62 l 0 0 m 0 250 l 250 250 l 250 312 l 0 312 l 0 250 m 0 125 l 250 125 l 250 187 l 0 187 l 0 125 m 0 625 l 250 625 l 250 687 l 0 687 l 0 625 "},";":{"x_min":0,"x_max":250.015625,"ha":313,"o":"m 0 0 l 250 0 l 250 62 l 0 62 l 0 0 m 0 125 l 250 125 l 250 187 l 0 187 l 0 125 m 0 750 l 250 750 l 250 812 l 0 812 l 0 750 m 0 875 l 250 875 l 250 937 l 0 937 l 0 875 m 0 -125 l 250 -125 l 250 -62 l 0 -62 l 0 -125 "},"i":{"x_min":0,"x_max":250.015625,"ha":313,"o":"m 0 0 l 250 0 l 250 62 l 0 62 l 0 0 m 0 125 l 250 125 l 250 187 l 0 187 l 0 125 m 0 250 l 250 250 l 250 312 l 0 312 l 0 250 m 0 375 l 250 375 l 250 437 l 0 437 l 0 375 m 0 500 l 250 500 l 250 562 l 0 562 l 0 500 m 0 625 l 250 625 l 250 687 l 0 687 l 0 625 m 0 750 l 250 750 l 250 812 l 0 812 l 0 750 m 0 875 l 250 875 l 250 937 l 0 937 l 0 875 "},"6":{"x_min":0,"x_max":750.0625,"ha":813,"o":"m 0 125 l 750 125 l 750 187 l 0 187 l 0 125 m 0 375 l 750 375 l 750 437 l 0 437 l 0 375 m 0 750 l 750 750 l 750 812 l 0 812 l 0 750 m 125 875 l 750 875 l 750 937 l 125 937 l 125 875 m 0 500 l 625 500 l 625 562 l 0 562 l 0 500 m 125 0 l 625 0 l 625 62 l 125 62 l 125 0 m 0 625 l 250 625 l 250 687 l 0 687 l 0 625 m 500 250 l 750 250 l 750 312 l 500 312 l 500 250 m 0 250 l 250 250 l 250 312 l 0 312 l 0 250 "},"A":{"x_min":0,"x_max":750.0625,"ha":813,"o":"m 0 375 l 750 375 l 750 437 l 0 437 l 0 375 m 0 500 l 750 500 l 750 562 l 0 562 l 0 500 m 0 750 l 750 750 l 750 812 l 0 812 l 0 750 m 125 875 l 625 875 l 625 937 l 125 937 l 125 875 m 500 250 l 750 250 l 750 312 l 500 312 l 500 250 m 0 0 l 250 0 l 250 62 l 0 62 l 0 0 m 0 125 l 250 125 l 250 187 l 0 187 l 0 125 m 500 125 l 750 125 l 750 187 l 500 187 l 500 125 m 0 625 l 250 625 l 250 687 l 0 687 l 0 625 m 0 250 l 250 250 l 250 312 l 0 312 l 0 250 m 500 625 l 750 625 l 750 687 l 500 687 l 500 625 m 500 0 l 750 0 l 750 62 l 500 62 l 500 0 "},"n":{"x_min":0,"x_max":750.0625,"ha":813,"o":"m 0 750 l 750 750 l 750 812 l 0 812 l 0 750 m 125 875 l 625 875 l 625 937 l 125 937 l 125 875 m 0 375 l 250 375 l 250 437 l 0 437 l 0 375 m 500 125 l 750 125 l 750 187 l 500 187 l 500 125 m 0 250 l 250 250 l 250 312 l 0 312 l 0 250 m 0 125 l 250 125 l 250 187 l 0 187 l 0 125 m 0 0 l 250 0 l 250 62 l 0 62 l 0 0 m 500 375 l 750 375 l 750 437 l 500 437 l 500 375 m 0 500 l 250 500 l 250 562 l 0 562 l 0 500 m 500 500 l 750 500 l 750 562 l 500 562 l 500 500 m 0 625 l 250 625 l 250 687 l 0 687 l 0 625 m 500 625 l 750 625 l 750 687 l 500 687 l 500 625 m 500 250 l 750 250 l 750 312 l 500 312 l 500 250 m 500 0 l 750 0 l 750 62 l 500 62 l 500 0 "},"O":{"x_min":0,"x_max":750.0625,"ha":813,"o":"m 0 125 l 750 125 l 750 187 l 0 187 l 0 125 m 0 750 l 750 750 l 750 812 l 0 812 l 0 750 m 125 875 l 625 875 l 625 937 l 125 937 l 125 875 m 125 0 l 625 0 l 625 62 l 125 62 l 125 0 m 500 375 l 750 375 l 750 437 l 500 437 l 500 375 m 0 250 l 250 250 l 250 312 l 0 312 l 0 250 m 0 500 l 250 500 l 250 562 l 0 562 l 0 500 m 500 500 l 750 500 l 750 562 l 500 562 l 500 500 m 0 625 l 250 625 l 250 687 l 0 687 l 0 625 m 0 375 l 250 375 l 250 437 l 0 437 l 0 375 m 500 250 l 750 250 l 750 312 l 500 312 l 500 250 m 500 625 l 750 625 l 750 687 l 500 687 l 500 625 "},"3":{"x_min":0,"x_max":750.0625,"ha":813,"o":"m 0 125 l 750 125 l 750 187 l 0 187 l 0 125 m 0 750 l 750 750 l 750 812 l 0 812 l 0 750 m 0 875 l 625 875 l 625 937 l 0 937 l 0 875 m 0 0 l 625 0 l 625 62 l 0 62 l 0 0 m 250 500 l 750 500 l 750 562 l 250 562 l 250 500 m 250 375 l 750 375 l 750 437 l 250 437 l 250 375 m 500 625 l 750 625 l 750 687 l 500 687 l 500 625 m 500 250 l 750 250 l 750 312 l 500 312 l 500 250 "},"]":{"x_min":0,"x_max":375.03125,"ha":438,"o":"m 0 0 l 375 0 l 375 62 l 0 62 l 0 0 m 0 125 l 375 125 l 375 187 l 0 187 l 0 125 m 0 750 l 375 750 l 375 812 l 0 812 l 0 750 m 0 875 l 375 875 l 375 937 l 0 937 l 0 875 m 125 500 l 375 500 l 375 562 l 125 562 l 125 500 m 125 250 l 375 250 l 375 312 l 125 312 l 125 250 m 125 375 l 375 375 l 375 437 l 125 437 l 125 375 m 125 625 l 375 625 l 375 687 l 125 687 l 125 625 "},"m":{"x_min":0,"x_max":1000.078125,"ha":1063,"o":"m 0 750 l 1000 750 l 1000 812 l 0 812 l 0 750 m 125 875 l 875 875 l 875 937 l 125 937 l 125 875 m 750 625 l 1000 625 l 1000 687 l 750 687 l 750 625 m 375 125 l 625 125 l 625 187 l 375 187 l 375 125 m 0 250 l 250 250 l 250 312 l 0 312 l 0 250 m 0 125 l 250 125 l 250 187 l 0 187 l 0 125 m 0 0 l 250 0 l 250 62 l 0 62 l 0 0 m 375 375 l 625 375 l 625 437 l 375 437 l 375 375 m 0 500 l 250 500 l 250 562 l 0 562 l 0 500 m 375 500 l 625 500 l 625 562 l 375 562 l 375 500 m 0 625 l 250 625 l 250 687 l 0 687 l 0 625 m 375 625 l 625 625 l 625 687 l 375 687 l 375 625 m 375 250 l 625 250 l 625 312 l 375 312 l 375 250 m 0 375 l 250 375 l 250 437 l 0 437 l 0 375 m 750 0 l 1000 0 l 1000 62 l 750 62 l 750 0 m 750 125 l 1000 125 l 1000 187 l 750 187 l 750 125 m 750 250 l 1000 250 l 1000 312 l 750 312 l 750 250 m 750 375 l 1000 375 l 1000 437 l 750 437 l 750 375 m 750 500 l 1000 500 l 1000 562 l 750 562 l 750 500 m 375 0 l 625 0 l 625 62 l 375 62 l 375 0 "},"9":{"x_min":0,"x_max":750.0625,"ha":813,"o":"m 0 500 l 750 500 l 750 562 l 0 562 l 0 500 m 0 750 l 750 750 l 750 812 l 0 812 l 0 750 m 125 375 l 750 375 l 750 437 l 125 437 l 125 375 m 125 875 l 625 875 l 625 937 l 125 937 l 125 875 m 500 0 l 750 0 l 750 62 l 500 62 l 500 0 m 0 625 l 250 625 l 250 687 l 0 687 l 0 625 m 500 625 l 750 625 l 750 687 l 500 687 l 500 625 m 500 250 l 750 250 l 750 312 l 500 312 l 500 250 m 500 125 l 750 125 l 750 187 l 500 187 l 500 125 "},"l":{"x_min":0,"x_max":750.0625,"ha":813,"o":"m 0 125 l 750 125 l 750 187 l 0 187 l 0 125 m 125 0 l 750 0 l 750 62 l 125 62 l 125 0 m 0 250 l 250 250 l 250 312 l 0 312 l 0 250 m 0 375 l 250 375 l 250 437 l 0 437 l 0 375 m 0 500 l 250 500 l 250 562 l 0 562 l 0 500 m 0 625 l 250 625 l 250 687 l 0 687 l 0 625 m 0 750 l 250 750 l 250 812 l 0 812 l 0 750 m 0 875 l 250 875 l 250 937 l 0 937 l 0 875 "},"8":{"x_min":0,"x_max":750.0625,"ha":813,"o":"m 0 125 l 750 125 l 750 187 l 0 187 l 0 125 m 0 375 l 750 375 l 750 437 l 0 437 l 0 375 m 0 500 l 750 500 l 750 562 l 0 562 l 0 500 m 0 750 l 750 750 l 750 812 l 0 812 l 0 750 m 125 875 l 625 875 l 625 937 l 125 937 l 125 875 m 125 0 l 625 0 l 625 62 l 125 62 l 125 0 m 500 625 l 750 625 l 750 687 l 500 687 l 500 625 m 0 250 l 250 250 l 250 312 l 0 312 l 0 250 m 500 250 l 750 250 l 750 312 l 500 312 l 500 250 m 0 625 l 250 625 l 250 687 l 0 687 l 0 625 "},"p":{"x_min":0,"x_max":750.0625,"ha":813,"o":"m 0 500 l 750 500 l 750 562 l 0 562 l 0 500 m 0 750 l 750 750 l 750 812 l 0 812 l 0 750 m 0 375 l 625 375 l 625 437 l 0 437 l 0 375 m 125 875 l 625 875 l 625 937 l 125 937 l 125 875 m 0 0 l 250 0 l 250 62 l 0 62 l 0 0 m 0 625 l 250 625 l 250 687 l 0 687 l 0 625 m 500 625 l 750 625 l 750 687 l 500 687 l 500 625 m 0 250 l 250 250 l 250 312 l 0 312 l 0 250 m 0 125 l 250 125 l 250 187 l 0 187 l 0 125 "},"4":{"x_min":0,"x_max":750.0625,"ha":813,"o":"m 0 500 l 750 500 l 750 562 l 0 562 l 0 500 m 125 375 l 750 375 l 750 437 l 125 437 l 125 375 m 500 250 l 750 250 l 750 312 l 500 312 l 500 250 m 500 125 l 750 125 l 750 187 l 500 187 l 500 125 m 500 0 l 750 0 l 750 62 l 500 62 l 500 0 m 0 625 l 250 625 l 250 687 l 0 687 l 0 625 m 500 625 l 750 625 l 750 687 l 500 687 l 500 625 m 0 750 l 250 750 l 250 812 l 0 812 l 0 750 m 500 750 l 750 750 l 750 812 l 500 812 l 500 750 m 0 875 l 250 875 l 250 937 l 0 937 l 0 875 m 500 875 l 750 875 l 750 937 l 500 937 l 500 875 "},"R":{"x_min":0,"x_max":750.0625,"ha":813,"o":"m 0 500 l 750 500 l 750 562 l 0 562 l 0 500 m 0 750 l 750 750 l 750 812 l 0 812 l 0 750 m 0 875 l 625 875 l 625 937 l 0 937 l 0 875 m 0 375 l 625 375 l 625 437 l 0 437 l 0 375 m 375 250 l 750 250 l 750 312 l 375 312 l 375 250 m 500 625 l 750 625 l 750 687 l 500 687 l 500 625 m 0 0 l 250 0 l 250 62 l 0 62 l 0 0 m 500 125 l 750 125 l 750 187 l 500 187 l 500 125 m 0 625 l 250 625 l 250 687 l 0 687 l 0 625 m 0 250 l 250 250 l 250 312 l 0 312 l 0 250 m 500 0 l 750 0 l 750 62 l 500 62 l 500 0 m 0 125 l 250 125 l 250 187 l 0 187 l 0 125 "},"o":{"x_min":0,"x_max":750.0625,"ha":813,"o":"m 0 125 l 750 125 l 750 187 l 0 187 l 0 125 m 0 750 l 750 750 l 750 812 l 0 812 l 0 750 m 125 875 l 625 875 l 625 937 l 125 937 l 125 875 m 125 0 l 625 0 l 625 62 l 125 62 l 125 0 m 500 375 l 750 375 l 750 437 l 500 437 l 500 375 m 0 250 l 250 250 l 250 312 l 0 312 l 0 250 m 0 500 l 250 500 l 250 562 l 0 562 l 0 500 m 500 500 l 750 500 l 750 562 l 500 562 l 500 500 m 0 625 l 250 625 l 250 687 l 0 687 l 0 625 m 0 375 l 250 375 l 250 437 l 0 437 l 0 375 m 500 250 l 750 250 l 750 312 l 500 312 l 500 250 m 500 625 l 750 625 l 750 687 l 500 687 l 500 625 "},"5":{"x_min":0,"x_max":750.0625,"ha":813,"o":"m 0 125 l 750 125 l 750 187 l 0 187 l 0 125 m 0 875 l 750 875 l 750 937 l 0 937 l 0 875 m 0 750 l 750 750 l 750 812 l 0 812 l 0 750 m 125 375 l 750 375 l 750 437 l 125 437 l 125 375 m 0 500 l 625 500 l 625 562 l 0 562 l 0 500 m 0 0 l 625 0 l 625 62 l 0 62 l 0 0 m 0 625 l 250 625 l 250 687 l 0 687 l 0 625 m 500 250 l 750 250 l 750 312 l 500 312 l 500 250 "}}}
